<svg width="31" height="31" viewBox="0 0 31 31" fill="none" xmlns="http://www.w3.org/2000/svg">
<path d="M18.7906 8.146H12.4906L8.04688 12.5897V18.8897L12.4906 23.3397H18.7906L23.2406 18.8897V12.5897L18.7906 8.146ZM15.6406 24.6772L13.4031 28.5522H17.8781L15.6406 24.6772ZM9.32188 22.0585L4.99687 23.2147L8.16563 26.3835L9.32188 22.0585ZM6.70312 15.7397L2.82812 13.5022V17.9772L6.70312 15.7397ZM9.32188 9.421L8.16563 5.096L4.99687 8.26475L9.32188 9.421ZM15.6406 6.80225L17.8781 2.92725H13.4031L15.6406 6.80225ZM21.9594 9.421L26.2844 8.26475L23.1156 5.096L21.9594 9.421ZM24.5781 15.7397L28.4531 17.9772V13.5022L24.5781 15.7397ZM21.9594 22.0585L23.1156 26.3835L26.2844 23.2147L21.9594 22.0585ZM15.6406 20.8522V18.271V20.8522Z" fill="#2563EB"/>
<path d="M15.6406 20.8522V18.271M18.7906 8.146H12.4906L8.04688 12.5897V18.8897L12.4906 23.3397H18.7906L23.2406 18.8897V12.5897L18.7906 8.146ZM15.6406 24.6772L13.4031 28.5522H17.8781L15.6406 24.6772ZM9.32188 22.0585L4.99687 23.2147L8.16562 26.3835L9.32188 22.0585ZM6.70312 15.7397L2.82812 13.5022V17.9772L6.70312 15.7397ZM9.32188 9.421L8.16562 5.096L4.99687 8.26475L9.32188 9.421ZM15.6406 6.80225L17.8781 2.92725H13.4031L15.6406 6.80225ZM21.9594 9.421L26.2844 8.26475L23.1156 5.096L21.9594 9.421ZM24.5781 15.7397L28.4531 17.9772V13.5022L24.5781 15.7397ZM21.9594 22.0585L23.1156 26.3835L26.2844 23.2147L21.9594 22.0585Z" stroke="#2563EB" stroke-width="0.5" stroke-linecap="round" stroke-linejoin="round"/>
<path d="M15.6414 18.2712L18.2789 18.7962L17.9102 17.7149L20.3102 15.8212L19.6727 15.5274L20.3102 13.9462L18.8289 14.1837L18.4602 13.3149L17.4102 14.6337H17.0102L17.6477 11.7337L16.5664 12.3649L15.6414 10.6274L14.7164 12.3649L13.6352 11.7337L14.2727 14.6337H13.8727L12.8227 13.3149L12.4539 14.1837L10.9727 13.9462L11.6102 15.5274L10.9727 15.8212L13.3727 17.7149L13.0039 18.7962L15.6414 18.2712Z" stroke="black" stroke-width="0.5" stroke-linecap="round" stroke-linejoin="round"/>
</svg>
