<svg width="31" height="41" viewBox="0 0 31 41" fill="none" xmlns="http://www.w3.org/2000/svg">
<path d="M15.6367 11.0376C11.3175 12.1488 8.125 16.0684 8.125 20.7397C8.125 25.4111 11.3175 29.3307 15.6367 30.4419L15.6562 30.4478V11.0317L15.6367 11.0376ZM15.6562 35.5151L15.6436 35.5132C8.55721 34.3269 3.15625 28.1617 3.15625 20.7397C3.15625 13.3178 8.55721 7.15257 15.6436 5.96631L15.6562 5.96436V3.23975C15.6562 1.86556 16.7664 0.755371 18.1406 0.755371C19.5148 0.755372 20.625 1.86556 20.625 3.23975V5.95654L20.6377 5.9585C23.0413 6.36431 25.2578 7.3477 27.1309 8.75244C28.2332 9.5753 28.4508 11.1275 27.6279 12.23C26.805 13.3323 25.2451 13.5499 24.1504 12.7271C23.1175 11.9446 21.9278 11.3662 20.6445 11.0376L20.625 11.0317V30.4399L20.6445 30.4341C21.9356 30.0976 23.1176 29.5192 24.1504 28.7446C25.245 27.9218 26.805 28.147 27.6279 29.2417C28.4507 30.3363 28.2255 31.8963 27.1309 32.7192C25.2578 34.1318 23.0492 35.1074 20.6377 35.5132L20.625 35.5151V38.2397C20.625 39.6139 19.5148 40.7241 18.1406 40.7241C16.7664 40.7241 15.6562 39.6139 15.6562 38.2397V35.5151Z" fill="#2563EB" stroke="#2563EB" stroke-width="0.03125"/>
</svg>
