<svg width="25" height="25" viewBox="0 0 25 25" fill="none" xmlns="http://www.w3.org/2000/svg">
<path d="M11.1406 6.87354V8.37354H6.64062V6.87354H11.1406ZM6.64062 11.3735V9.87354H11.1406V11.3735H6.64062ZM6.64062 14.3735V12.8735H9.64062V14.3735H6.64062ZM5.14062 6.87354V8.37354H3.64062V6.87354H5.14062ZM5.14062 9.87354V11.3735H3.64062V9.87354H5.14062ZM3.64062 14.3735V12.8735H5.14062V14.3735H3.64062ZM2.14062 2.37354V23.3735H9.64062V24.8735H0.640625V0.873535H13.707L20.1406 7.30713V9.87354H18.6406V8.37354H12.6406V2.37354H2.14062ZM14.1406 3.43994V6.87354H17.5742L14.1406 3.43994ZM21.6406 12.8735H24.6406V24.8735H11.1406V12.8735H14.1406V11.3735H15.6406V12.8735H20.1406V11.3735H21.6406V12.8735ZM23.1406 23.3735V17.3735H12.6406V23.3735H23.1406ZM23.1406 15.8735V14.3735H12.6406V15.8735H23.1406Z" fill="#2563EB"/>
</svg>
