<svg width="23" height="18" viewBox="0 0 23 18" fill="none" xmlns="http://www.w3.org/2000/svg">
<path d="M1.64062 1.37354H8.39762C8.79173 1.37349 9.18198 1.45109 9.54608 1.60191C9.91018 1.75274 10.241 1.97382 10.5196 2.25254L13.6406 5.37354M4.64062 10.3735H1.64062M8.14062 4.37354L10.1406 6.37354C10.2719 6.50486 10.3761 6.66076 10.4472 6.83234C10.5183 7.00392 10.5548 7.18782 10.5548 7.37354C10.5548 7.55925 10.5183 7.74315 10.4472 7.91473C10.3761 8.08631 10.2719 8.24221 10.1406 8.37354C10.0093 8.50486 9.8534 8.60903 9.68182 8.6801C9.51024 8.75117 9.32634 8.78775 9.14062 8.78775C8.95491 8.78775 8.77101 8.75117 8.59943 8.6801C8.42785 8.60903 8.27195 8.50486 8.14062 8.37354L6.64062 6.87354C5.78062 7.73354 4.41762 7.83054 3.44362 7.10054L3.14062 6.87354" stroke="#2563EB" stroke-width="1.5" stroke-linecap="round" stroke-linejoin="round"/>
<path d="M4.64062 7.87354V12.3735C4.64062 14.2595 4.64062 15.2015 5.22662 15.7875C5.81262 16.3735 6.75462 16.3735 8.64062 16.3735H17.6406C19.5266 16.3735 20.4686 16.3735 21.0546 15.7875C21.6406 15.2015 21.6406 14.2595 21.6406 12.3735V9.37354C21.6406 7.48754 21.6406 6.54554 21.0546 5.95954C20.4686 5.37354 19.5266 5.37354 17.6406 5.37354H9.14062" stroke="#2563EB" stroke-width="1.5" stroke-linecap="round" stroke-linejoin="round"/>
<path d="M14.8906 10.8735C14.8906 11.3377 14.7063 11.7828 14.3781 12.111C14.0499 12.4392 13.6048 12.6235 13.1406 12.6235C12.6765 12.6235 12.2314 12.4392 11.9032 12.111C11.575 11.7828 11.3906 11.3377 11.3906 10.8735C11.3906 10.4094 11.575 9.96429 11.9032 9.6361C12.2314 9.30791 12.6765 9.12354 13.1406 9.12354C13.6048 9.12354 14.0499 9.30791 14.3781 9.6361C14.7063 9.96429 14.8906 10.4094 14.8906 10.8735Z" stroke="#2563EB" stroke-width="1.5" stroke-linecap="round" stroke-linejoin="round"/>
</svg>
