<svg width="25" height="25" viewBox="0 0 25 25" fill="none" xmlns="http://www.w3.org/2000/svg">
<path d="M16.0816 3.12359C12.7591 3.12359 10.0816 5.80109 10.0816 9.12359C10.0816 9.29984 10.1093 9.53834 10.1288 9.75659L3.70659 16.1781C3.35578 16.5266 3.07738 16.9411 2.8874 17.3976C2.69742 17.8542 2.59961 18.3438 2.59961 18.8383C2.59961 19.3328 2.69742 19.8225 2.8874 20.279C3.07738 20.7356 3.35578 21.1501 3.70659 21.4986C4.05512 21.8494 4.46959 22.1278 4.92615 22.3178C5.38271 22.5078 5.87233 22.6056 6.36684 22.6056C6.86134 22.6056 7.35097 22.5078 7.80752 22.3178C8.26408 22.1278 8.67855 21.8494 9.02709 21.4986L15.4486 15.0763C15.6661 15.0958 15.9061 15.1236 16.0816 15.1236C19.4041 15.1236 22.0816 12.4461 22.0816 9.12359C22.0854 8.15685 21.8434 7.20501 21.3781 6.35759L20.9093 5.49059L20.2066 6.19409L16.9718 9.40409L15.8003 8.23259L19.0103 4.99859L19.7153 4.29509L18.8476 3.82634C18.0001 3.36133 17.0483 3.1195 16.0816 3.12359ZM16.0816 4.62359C16.4461 4.62359 16.7176 4.78109 17.0416 4.85834L14.2066 7.69334L13.6666 8.23334L14.2066 8.74859L16.4566 10.9986L16.9726 11.5386L17.5111 10.9986L20.3476 8.16359C20.4248 8.48759 20.5816 8.75909 20.5816 9.12359C20.5816 11.6511 18.6091 13.6236 16.0816 13.6236C15.7816 13.6236 15.5416 13.6236 15.3541 13.5763L14.9566 13.4593L14.6521 13.7646L7.97184 20.4448C7.04934 21.3673 5.68434 21.3673 4.76184 20.4448L4.73784 20.4208C3.83784 19.4983 3.84534 18.1483 4.76034 17.2333L11.4406 10.5538L11.7458 10.2493L11.6273 9.85184C11.5823 9.66434 11.5808 9.42434 11.5808 9.12434C11.5808 6.59684 13.5533 4.62434 16.0808 4.62434L16.0816 4.62359Z" fill="#2563EB"/>
</svg>
