<svg width="31" height="31" viewBox="0 0 31 31" fill="none" xmlns="http://www.w3.org/2000/svg">
<mask id="path-1-inside-1_1574_656" fill="white">
<path d="M26.5019 11.8274L28.1406 19.6511H26.2631C26.1881 19.3236 26.1294 18.9811 26.0544 18.6536C25.9794 18.3261 26.0544 18.4899 25.8606 18.4899H23.5819C23.5573 18.4856 23.5322 18.4865 23.508 18.4926C23.4838 18.4986 23.4612 18.5096 23.4416 18.5249C23.4219 18.5402 23.4057 18.5595 23.3939 18.5814C23.3821 18.6034 23.375 18.6275 23.3731 18.6524C23.2681 18.9524 23.1644 19.2499 23.0456 19.5324C22.9256 19.8149 22.9406 19.6661 22.8956 19.6661H20.8856V19.4874C21.879 17.1332 22.8719 14.7744 23.8644 12.4111C23.9229 12.2506 24.0279 12.111 24.1658 12.0102C24.3038 11.9094 24.4686 11.8518 24.6394 11.8449C25.2944 11.8149 25.8906 11.8299 26.5019 11.8299M25.1019 14.0211L24.0431 16.8674H25.7119L25.1019 14.0211ZM8.28062 17.1474V16.9686C8.87687 15.3149 9.48687 13.6611 10.0681 12.0074C10.0681 11.8736 10.1881 11.8136 10.3369 11.8136H12.3181V12.0074L9.23438 19.4574C9.21973 19.5191 9.18246 19.5731 9.12993 19.6088C9.0774 19.6444 9.01343 19.6591 8.95062 19.6499H7.22312C7.07312 19.6499 7.01438 19.6499 6.96938 19.4561C6.41938 17.3111 5.85187 15.1661 5.30062 13.0061C5.27377 12.8946 5.20419 12.7981 5.10687 12.7374C4.53198 12.4165 3.92271 12.1616 3.29062 11.9774C3.29062 11.9774 3.18562 11.9024 3.14062 11.8736C3.20409 11.8566 3.27091 11.8566 3.33437 11.8736H6.31437C6.43884 11.8547 6.5659 11.8623 6.68724 11.8958C6.80857 11.9294 6.92144 11.9883 7.01845 12.0685C7.11545 12.1488 7.19441 12.2486 7.25015 12.3615C7.30589 12.4744 7.33714 12.5978 7.34188 12.7236L8.19187 17.0874C8.18695 17.1222 8.18695 17.1575 8.19187 17.1924L8.28062 17.1474ZM15.2231 19.3524L15.5219 17.6086L15.7306 17.7286C16.4915 18.1218 17.364 18.2426 18.2031 18.0711C18.3635 18.0574 18.5157 17.994 18.6384 17.8899C18.7612 17.7857 18.8485 17.6459 18.8881 17.4899C18.9041 17.3341 18.8693 17.1774 18.7889 17.0431C18.7085 16.9089 18.5867 16.8042 18.4419 16.7449C18.1431 16.5511 17.8169 16.4024 17.5331 16.2086C17.1656 16.0039 16.8254 15.7535 16.5206 15.4636C16.2114 15.0937 16.0421 14.6269 16.0421 14.1449C16.0421 13.6628 16.2114 13.196 16.5206 12.8261C16.9693 12.3361 17.5559 11.9936 18.2031 11.8436C19.1892 11.5965 20.2265 11.6483 21.1831 11.9924H21.2581L20.9744 13.6011C20.5983 13.4863 20.215 13.3969 19.8269 13.3336C19.44 13.3035 19.0513 13.3035 18.6644 13.3336C18.5247 13.3616 18.396 13.4288 18.2931 13.5274C18.2436 13.5696 18.2037 13.6221 18.1764 13.6812C18.1491 13.7404 18.135 13.8047 18.135 13.8699C18.135 13.935 18.1491 13.9993 18.1764 14.0585C18.2037 14.1176 18.2436 14.1701 18.2931 14.2124C18.4715 14.3765 18.6648 14.5207 18.8731 14.6449C19.2606 14.8824 19.6631 15.0761 20.0356 15.3299C20.3438 15.5182 20.5993 15.7814 20.7786 16.095C20.9578 16.4085 21.0549 16.7622 21.0609 17.1234C21.0669 17.4845 20.9815 17.8412 20.8128 18.1606C20.644 18.4799 20.3974 18.7514 20.0956 18.9499C19.5017 19.4101 18.7879 19.6895 18.0394 19.7549C17.0817 19.8587 16.1133 19.7203 15.2231 19.3524ZM11.9156 19.6499L13.1969 11.8286H15.2381L13.9569 19.6499H11.9156Z"/>
</mask>
<path d="M26.5019 11.8274L28.1406 19.6511H26.2631C26.1881 19.3236 26.1294 18.9811 26.0544 18.6536C25.9794 18.3261 26.0544 18.4899 25.8606 18.4899H23.5819C23.5573 18.4856 23.5322 18.4865 23.508 18.4926C23.4838 18.4986 23.4612 18.5096 23.4416 18.5249C23.4219 18.5402 23.4057 18.5595 23.3939 18.5814C23.3821 18.6034 23.375 18.6275 23.3731 18.6524C23.2681 18.9524 23.1644 19.2499 23.0456 19.5324C22.9256 19.8149 22.9406 19.6661 22.8956 19.6661H20.8856V19.4874C21.879 17.1332 22.8719 14.7744 23.8644 12.4111C23.9229 12.2506 24.0279 12.111 24.1658 12.0102C24.3038 11.9094 24.4686 11.8518 24.6394 11.8449C25.2944 11.8149 25.8906 11.8299 26.5019 11.8299M25.1019 14.0211L24.0431 16.8674H25.7119L25.1019 14.0211ZM8.28062 17.1474V16.9686C8.87687 15.3149 9.48687 13.6611 10.0681 12.0074C10.0681 11.8736 10.1881 11.8136 10.3369 11.8136H12.3181V12.0074L9.23438 19.4574C9.21973 19.5191 9.18246 19.5731 9.12993 19.6088C9.0774 19.6444 9.01343 19.6591 8.95062 19.6499H7.22312C7.07312 19.6499 7.01438 19.6499 6.96938 19.4561C6.41938 17.3111 5.85187 15.1661 5.30062 13.0061C5.27377 12.8946 5.20419 12.7981 5.10687 12.7374C4.53198 12.4165 3.92271 12.1616 3.29062 11.9774C3.29062 11.9774 3.18562 11.9024 3.14062 11.8736C3.20409 11.8566 3.27091 11.8566 3.33437 11.8736H6.31437C6.43884 11.8547 6.5659 11.8623 6.68724 11.8958C6.80857 11.9294 6.92144 11.9883 7.01845 12.0685C7.11545 12.1488 7.19441 12.2486 7.25015 12.3615C7.30589 12.4744 7.33714 12.5978 7.34188 12.7236L8.19187 17.0874C8.18695 17.1222 8.18695 17.1575 8.19187 17.1924L8.28062 17.1474ZM15.2231 19.3524L15.5219 17.6086L15.7306 17.7286C16.4915 18.1218 17.364 18.2426 18.2031 18.0711C18.3635 18.0574 18.5157 17.994 18.6384 17.8899C18.7612 17.7857 18.8485 17.6459 18.8881 17.4899C18.9041 17.3341 18.8693 17.1774 18.7889 17.0431C18.7085 16.9089 18.5867 16.8042 18.4419 16.7449C18.1431 16.5511 17.8169 16.4024 17.5331 16.2086C17.1656 16.0039 16.8254 15.7535 16.5206 15.4636C16.2114 15.0937 16.0421 14.6269 16.0421 14.1449C16.0421 13.6628 16.2114 13.196 16.5206 12.8261C16.9693 12.3361 17.5559 11.9936 18.2031 11.8436C19.1892 11.5965 20.2265 11.6483 21.1831 11.9924H21.2581L20.9744 13.6011C20.5983 13.4863 20.215 13.3969 19.8269 13.3336C19.44 13.3035 19.0513 13.3035 18.6644 13.3336C18.5247 13.3616 18.396 13.4288 18.2931 13.5274C18.2436 13.5696 18.2037 13.6221 18.1764 13.6812C18.1491 13.7404 18.135 13.8047 18.135 13.8699C18.135 13.935 18.1491 13.9993 18.1764 14.0585C18.2037 14.1176 18.2436 14.1701 18.2931 14.2124C18.4715 14.3765 18.6648 14.5207 18.8731 14.6449C19.2606 14.8824 19.6631 15.0761 20.0356 15.3299C20.3438 15.5182 20.5993 15.7814 20.7786 16.095C20.9578 16.4085 21.0549 16.7622 21.0609 17.1234C21.0669 17.4845 20.9815 17.8412 20.8128 18.1606C20.644 18.4799 20.3974 18.7514 20.0956 18.9499C19.5017 19.4101 18.7879 19.6895 18.0394 19.7549C17.0817 19.8587 16.1133 19.7203 15.2231 19.3524ZM11.9156 19.6499L13.1969 11.8286H15.2381L13.9569 19.6499H11.9156Z" fill="#2563EB"/>
<path d="M28.1406 19.6511V20.6511H29.3718L29.1194 19.4461L28.1406 19.6511ZM26.2631 19.6511L25.2884 19.8743L25.4662 20.6511H26.2631V19.6511ZM23.5819 18.4899L23.4111 19.4752L23.4959 19.4899H23.5819V18.4899ZM23.3731 18.6524L24.317 18.9827L24.3602 18.8591L24.3702 18.7286L23.3731 18.6524ZM23.0456 19.5324L23.966 19.9233L23.9675 19.9199L23.0456 19.5324ZM20.8856 19.6661H19.8856V20.6661H20.8856V19.6661ZM20.8856 19.4874L19.9643 19.0986L19.8856 19.285V19.4874H20.8856ZM23.8644 12.4111L24.7864 12.7983L24.7956 12.7762L24.8038 12.7537L23.8644 12.4111ZM24.6394 11.8449L24.6803 12.844L24.6851 12.8438L24.6394 11.8449ZM25.1019 14.0211L26.0797 13.8115L25.3607 10.457L24.1646 13.6725L25.1019 14.0211ZM24.0431 16.8674L23.1059 16.5187L22.6042 17.8674H24.0431V16.8674ZM25.7119 16.8674V17.8674H26.9489L26.6897 16.6578L25.7119 16.8674ZM8.28062 17.1474L8.73285 18.0393L9.28062 17.7615V17.1474H8.28062ZM8.28062 16.9686L7.3399 16.6294L7.28062 16.7938V16.9686H8.28062ZM10.0681 12.0074L11.0115 12.3389L11.0681 12.178V12.0074H10.0681ZM12.3181 11.8136H13.3181V10.8136H12.3181V11.8136ZM12.3181 12.0074L13.2421 12.3898L13.3181 12.2061V12.0074H12.3181ZM9.23438 19.4574L8.3104 19.0749L8.27982 19.1488L8.26137 19.2266L9.23438 19.4574ZM8.95062 19.6499L9.09585 18.6605L9.02362 18.6499H8.95062V19.6499ZM6.96938 19.4561L7.94345 19.2299L7.94087 19.2188L7.93804 19.2077L6.96938 19.4561ZM5.30062 13.0061L4.32833 13.2402L4.33168 13.2534L5.30062 13.0061ZM5.10687 12.7374L5.63623 11.889L5.61553 11.876L5.59422 11.8641L5.10687 12.7374ZM3.29062 11.9774L2.70938 12.7911L2.84768 12.8899L3.01085 12.9374L3.29062 11.9774ZM3.14062 11.8736L2.88229 10.9075L0.689112 11.494L2.60224 12.7163L3.14062 11.8736ZM3.33437 11.8736L3.07604 12.8397L3.20298 12.8736H3.33437V11.8736ZM6.31437 11.8736V12.8736H6.38998L6.46473 12.8622L6.31437 11.8736ZM7.34188 12.7236L6.34258 12.7612L6.3455 12.8387L6.36032 12.9148L7.34188 12.7236ZM8.19187 17.0874L9.18203 17.2274L9.20554 17.061L9.17343 16.8962L8.19187 17.0874ZM8.19187 17.1924L7.20172 17.3324L7.39741 18.7164L8.6441 18.0843L8.19187 17.1924ZM15.2231 19.3524L14.2375 19.1835L14.1025 19.9712L14.8411 20.2765L15.2231 19.3524ZM15.5219 17.6086L16.0202 16.7416L14.7782 16.0276L14.5362 17.4397L15.5219 17.6086ZM15.7306 17.7286L15.2323 18.5956L15.2517 18.6067L15.2716 18.617L15.7306 17.7286ZM18.2031 18.0711L18.1178 17.0747L18.0598 17.0797L18.0028 17.0914L18.2031 18.0711ZM18.8881 17.4899L19.8573 17.7362L19.8754 17.6651L19.8829 17.5921L18.8881 17.4899ZM18.4419 16.7449L17.8978 17.5839L17.9762 17.6347L18.0626 17.6702L18.4419 16.7449ZM17.5331 16.2086L18.097 15.3828L18.0595 15.3571L18.0198 15.335L17.5331 16.2086ZM16.5206 15.4636L15.7534 16.1049L15.79 16.1488L15.8314 16.1882L16.5206 15.4636ZM16.0421 14.1449H17.0421H16.0421ZM16.5206 12.8261L15.7831 12.1508L15.7679 12.1674L15.7534 12.1848L16.5206 12.8261ZM18.2031 11.8436L18.4289 12.8178L18.4375 12.8158L18.4462 12.8136L18.2031 11.8436ZM21.1831 11.9924L20.8447 12.9333L21.0088 12.9924H21.1831V11.9924ZM21.2581 11.9924L22.2429 12.1661L22.4499 10.9924H21.2581V11.9924ZM20.9744 13.6011L20.6823 14.5575L21.7629 14.8875L21.9592 13.7748L20.9744 13.6011ZM19.8269 13.3336L19.9878 12.3466L19.9463 12.3399L19.9044 12.3366L19.8269 13.3336ZM18.6644 13.3336L18.5869 12.3366L18.5267 12.3413L18.4676 12.3532L18.6644 13.3336ZM18.2931 13.5274L18.9417 14.2885L18.9639 14.2696L18.9849 14.2495L18.2931 13.5274ZM18.135 13.8699H19.135H18.135ZM18.2931 14.2124L18.9704 13.4766L18.9563 13.4637L18.9417 13.4512L18.2931 14.2124ZM18.8731 14.6449L19.3957 13.7922L19.3851 13.7858L18.8731 14.6449ZM20.0356 15.3299L19.4726 16.1563L19.493 16.1702L19.514 16.183L20.0356 15.3299ZM20.0956 18.9499L19.546 18.1144L19.5137 18.1357L19.4831 18.1594L20.0956 18.9499ZM18.0394 19.7549L17.9524 18.7586L17.942 18.7596L17.9316 18.7607L18.0394 19.7549ZM11.9156 19.6499L10.9288 19.4882L10.7385 20.6499H11.9156V19.6499ZM13.1969 11.8286V10.8286H12.3474L12.21 11.6669L13.1969 11.8286ZM15.2381 11.8286L16.225 11.9903L16.4153 10.8286H15.2381V11.8286ZM13.9569 19.6499V20.6499H14.8064L14.9437 19.8115L13.9569 19.6499ZM26.5019 11.8274L25.5231 12.0324L27.1619 19.8561L28.1406 19.6511L29.1194 19.4461L27.4806 11.6223L26.5019 11.8274ZM28.1406 19.6511V18.6511H26.2631V19.6511V20.6511H28.1406V19.6511ZM26.2631 19.6511L27.2379 19.4279C27.2041 19.2802 27.1733 19.1266 27.1394 18.9566C27.1065 18.7916 27.0703 18.6102 27.0291 18.4304L26.0544 18.6536L25.0796 18.8768C25.1134 19.0246 25.1442 19.1782 25.1781 19.3481C25.211 19.5131 25.2472 19.6946 25.2884 19.8743L26.2631 19.6511ZM26.0544 18.6536L27.0291 18.4304C27.0114 18.3531 27.0119 18.3477 26.9977 18.2814C26.9977 18.2814 26.9784 18.1789 26.9339 18.0723C26.9108 18.0171 26.8454 17.8702 26.7008 17.7309C26.5209 17.5575 26.2734 17.4489 26.002 17.4489C25.7846 17.4489 25.6255 17.5201 25.5761 17.543C25.5184 17.5696 25.473 17.5977 25.4721 17.5983C25.4504 17.6113 25.4886 17.5874 25.5304 17.5673C25.6394 17.5152 25.7549 17.4899 25.8606 17.4899V18.4899V19.4899C26.0633 19.4899 26.242 19.444 26.3937 19.3714C26.457 19.3411 26.5114 19.307 26.5025 19.3124C26.5015 19.313 26.4927 19.3183 26.4808 19.325C26.4691 19.3315 26.4459 19.3442 26.4153 19.3584C26.3707 19.379 26.2158 19.4489 26.002 19.4489C25.8844 19.4489 25.7544 19.4279 25.6236 19.374C25.4939 19.3205 25.391 19.2461 25.3132 19.1711C25.1716 19.0347 25.1089 18.8922 25.0885 18.8435C25.0637 18.7842 25.0513 18.7371 25.0479 18.7242C25.0455 18.7147 25.0438 18.7076 25.0429 18.704C25.0425 18.702 25.0422 18.7005 25.042 18.6997C25.0419 18.6992 25.0418 18.6988 25.0417 18.6986C25.0417 18.6984 25.0417 18.6983 25.0417 18.6983C25.0406 18.6934 25.0598 18.7904 25.0796 18.8768L26.0544 18.6536ZM25.8606 18.4899V17.4899H23.5819V18.4899V19.4899H25.8606V18.4899ZM23.5819 18.4899L23.7526 17.5045C23.5908 17.4765 23.4249 17.4826 23.2655 17.5224L23.508 18.4926L23.7505 19.4627C23.6395 19.4905 23.5239 19.4947 23.4111 19.4752L23.5819 18.4899ZM23.508 18.4926L23.2655 17.5224C23.1062 17.5622 22.9569 17.6349 22.8273 17.7358L23.4416 18.5249L24.0558 19.314C23.9655 19.3843 23.8615 19.435 23.7505 19.4627L23.508 18.4926ZM23.4416 18.5249L22.8273 17.7358C22.6977 17.8367 22.5906 17.9636 22.5129 18.1083L23.3939 18.5814L24.2749 19.0545C24.2207 19.1553 24.1461 19.2437 24.0558 19.314L23.4416 18.5249ZM23.3939 18.5814L22.5129 18.1083C22.4351 18.253 22.3886 18.4124 22.376 18.5761L23.3731 18.6524L24.3702 18.7286C24.3615 18.8426 24.329 18.9537 24.2749 19.0545L23.3939 18.5814ZM23.3731 18.6524L22.4293 18.322C22.322 18.6286 22.2284 18.8958 22.1238 19.1448L23.0456 19.5324L23.9675 19.9199C24.1003 19.6039 24.2143 19.2761 24.317 18.9827L23.3731 18.6524ZM23.0456 19.5324L22.1252 19.1414C22.0982 19.2049 22.1022 19.1866 22.1308 19.1411C22.1423 19.1226 22.1959 19.0368 22.2967 18.9481C22.3994 18.8578 22.6653 18.6682 23.0529 18.7113C23.4124 18.7512 23.618 18.9675 23.6693 19.0236C23.7194 19.0784 23.7687 19.1511 23.7354 19.1043C23.7313 19.0986 23.6658 19.002 23.5582 18.9104C23.4319 18.8029 23.2059 18.6661 22.8956 18.6661V19.6661V20.6661C22.5966 20.6661 22.38 20.5339 22.2619 20.4335C22.2065 20.3863 22.1679 20.3426 22.1462 20.3164C22.1246 20.2903 22.1096 20.2693 22.107 20.2655C22.0805 20.2283 22.1361 20.3106 22.1931 20.3729C22.2513 20.4366 22.4642 20.6582 22.8321 20.699C23.2282 20.7431 23.5037 20.55 23.6179 20.4496C23.7302 20.3507 23.7973 20.248 23.825 20.2038C23.886 20.1067 23.933 20.0011 23.966 19.9233L23.0456 19.5324ZM22.8956 19.6661V18.6661H20.8856V19.6661V20.6661H22.8956V19.6661ZM20.8856 19.6661H21.8856V19.4874H20.8856H19.8856V19.6661H20.8856ZM20.8856 19.4874L21.807 19.8761C22.8005 17.5214 23.7937 15.1622 24.7864 12.7983L23.8644 12.4111L22.9424 12.0239C21.9501 14.3867 20.9574 16.745 19.9643 19.0986L20.8856 19.4874ZM23.8644 12.4111L24.8038 12.7537C24.7945 12.7793 24.7778 12.8016 24.7558 12.8177L24.1658 12.0102L23.5759 11.2028C23.2779 11.4205 23.0513 11.7218 22.9249 12.0685L23.8644 12.4111ZM24.1658 12.0102L24.7558 12.8177C24.7338 12.8337 24.7075 12.8429 24.6803 12.844L24.6394 11.8449L24.5985 10.8457C24.2297 10.8608 23.8738 10.9851 23.5759 11.2028L24.1658 12.0102ZM24.6394 11.8449L24.6851 12.8438C25.3096 12.8152 25.8601 12.8299 26.5019 12.8299V11.8299V10.8299C25.9211 10.8299 25.2791 10.8145 24.5936 10.8459L24.6394 11.8449ZM25.1019 14.0211L24.1646 13.6725L23.1059 16.5187L24.0431 16.8674L24.9804 17.216L26.0391 14.3697L25.1019 14.0211ZM24.0431 16.8674V17.8674H25.7119V16.8674V15.8674H24.0431V16.8674ZM25.7119 16.8674L26.6897 16.6578L26.0797 13.8115L25.1019 14.0211L24.1241 14.2307L24.7341 17.0769L25.7119 16.8674ZM8.28062 17.1474H9.28062V16.9686H8.28062H7.28062V17.1474H8.28062ZM8.28062 16.9686L9.22135 17.3078C9.81411 15.6637 10.4287 13.9973 11.0115 12.3389L10.0681 12.0074L9.1247 11.6758C8.54508 13.3249 7.93964 14.966 7.3399 16.6294L8.28062 16.9686ZM10.0681 12.0074H11.0681C11.0681 12.1283 11.0396 12.2691 10.9634 12.4063C10.8881 12.5418 10.7871 12.6365 10.6933 12.6977C10.5224 12.8093 10.3751 12.8136 10.3369 12.8136V11.8136V10.8136C10.1499 10.8136 9.86821 10.8479 9.60012 11.0229C9.28257 11.2302 9.06812 11.5864 9.06812 12.0074H10.0681ZM10.3369 11.8136V12.8136H12.3181V11.8136V10.8136H10.3369V11.8136ZM12.3181 11.8136H11.3181V12.0074H12.3181H13.3181V11.8136H12.3181ZM12.3181 12.0074L11.3942 11.6249L8.3104 19.0749L9.23438 19.4574L10.1583 19.8398L13.2421 12.3898L12.3181 12.0074ZM9.23438 19.4574L8.26137 19.2266C8.30445 19.0449 8.41404 18.886 8.56852 18.7812L9.12993 19.6088L9.69135 20.4363C9.95088 20.2602 10.135 19.9933 10.2074 19.6881L9.23438 19.4574ZM9.12993 19.6088L8.56852 18.7812C8.72299 18.6764 8.91114 18.6333 9.09585 18.6605L8.95062 19.6499L8.8054 20.6393C9.11571 20.6848 9.43182 20.6124 9.69135 20.4363L9.12993 19.6088ZM8.95062 19.6499V18.6499H7.22312V19.6499V20.6499H8.95062V19.6499ZM7.22312 19.6499V18.6499C7.16811 18.6499 7.19747 18.6486 7.23672 18.6529C7.28825 18.6586 7.42876 18.6796 7.58382 18.7757C7.74941 18.8784 7.84474 19.0119 7.89398 19.1065C7.93547 19.1862 7.9463 19.2421 7.94345 19.2299L6.96938 19.4561L5.9953 19.6823C6.02377 19.8049 6.12076 20.2218 6.52993 20.4755C6.72405 20.5959 6.91019 20.629 7.01632 20.6407C7.11019 20.6511 7.20314 20.6499 7.22312 20.6499V19.6499ZM6.96938 19.4561L7.93804 19.2077C7.38184 17.0386 6.82428 14.9324 6.26957 12.7588L5.30062 13.0061L4.33168 13.2534C4.87947 15.3998 5.45691 17.5836 6.00071 19.7045L6.96938 19.4561ZM5.30062 13.0061L6.27283 12.772C6.1846 12.4056 5.95598 12.0885 5.63623 11.889L5.10687 12.7374L4.57752 13.5858C4.4524 13.5077 4.36294 13.3836 4.32842 13.2402L5.30062 13.0061ZM5.10687 12.7374L5.59422 11.8641C4.95362 11.5066 4.27472 11.2225 3.5704 11.0173L3.29062 11.9774L3.01085 12.9374C3.57069 13.1006 4.11033 13.3264 4.61953 13.6106L5.10687 12.7374ZM3.29062 11.9774C3.87186 11.1636 3.87186 11.1636 3.87185 11.1636C3.87184 11.1636 3.87183 11.1636 3.87183 11.1636C3.87181 11.1636 3.87179 11.1636 3.87178 11.1636C3.87174 11.1635 3.8717 11.1635 3.87165 11.1635C3.87155 11.1634 3.87143 11.1633 3.87128 11.1632C3.87099 11.163 3.87059 11.1627 3.8701 11.1624C3.86912 11.1617 3.86776 11.1607 3.86606 11.1595C3.86265 11.1571 3.85787 11.1537 3.85204 11.1495C3.84044 11.1413 3.82435 11.1299 3.8065 11.1174C3.77718 11.0969 3.72246 11.0587 3.67901 11.0309L3.14062 11.8736L2.60224 12.7163C2.59965 12.7147 2.60404 12.7174 2.61804 12.727C2.63013 12.7353 2.64426 12.7451 2.6585 12.7551C2.67253 12.7649 2.6855 12.7741 2.69499 12.7809C2.69971 12.7842 2.70348 12.7869 2.70599 12.7887C2.70725 12.7896 2.70819 12.7902 2.70877 12.7906C2.70906 12.7909 2.70926 12.791 2.70936 12.7911C2.70941 12.7911 2.70944 12.7911 2.70945 12.7911C2.70945 12.7911 2.70944 12.7911 2.70943 12.7911C2.70943 12.7911 2.70942 12.7911 2.70941 12.7911C2.70941 12.7911 2.7094 12.7911 2.7094 12.7911C2.70939 12.7911 2.70938 12.7911 3.29062 11.9774ZM3.14062 11.8736L3.39896 12.8397C3.29318 12.8679 3.18182 12.8679 3.07604 12.8397L3.33437 11.8736L3.59271 10.9075C3.35999 10.8453 3.11501 10.8453 2.88229 10.9075L3.14062 11.8736ZM3.33437 11.8736V12.8736H6.31437V11.8736V10.8736H3.33437V11.8736ZM6.31437 11.8736L6.46473 12.8622C6.44993 12.8645 6.43483 12.8636 6.42041 12.8596L6.68724 11.8958L6.95407 10.9321C6.69698 10.8609 6.42775 10.8449 6.16402 10.885L6.31437 11.8736ZM6.68724 11.8958L6.42041 12.8596C6.40598 12.8556 6.39256 12.8486 6.38103 12.8391L7.01845 12.0685L7.65586 11.298C7.45031 11.128 7.21116 11.0033 6.95407 10.9321L6.68724 11.8958ZM7.01845 12.0685L6.38103 12.8391C6.3695 12.8295 6.36011 12.8177 6.35349 12.8042L7.25015 12.3615L8.14681 11.9188C8.02871 11.6796 7.8614 11.4681 7.65586 11.298L7.01845 12.0685ZM7.25015 12.3615L6.35349 12.8042C6.34686 12.7908 6.34314 12.7761 6.34258 12.7612L7.34188 12.7236L8.34117 12.686C8.33114 12.4194 8.26491 12.158 8.14681 11.9188L7.25015 12.3615ZM7.34188 12.7236L6.36032 12.9148L7.21032 17.2785L8.19187 17.0874L9.17343 16.8962L8.32343 12.5324L7.34188 12.7236ZM8.19187 17.0874L7.20172 16.9474C7.18367 17.0751 7.18367 17.2047 7.20172 17.3324L8.19187 17.1924L9.18203 17.0524C9.19023 17.1104 9.19023 17.1693 9.18203 17.2274L8.19187 17.0874ZM8.19187 17.1924L8.6441 18.0843L8.73285 18.0393L8.28062 17.1474L7.8284 16.2555L7.73965 16.3004L8.19187 17.1924ZM15.2231 19.3524L16.2088 19.5212L16.5075 17.7775L15.5219 17.6086L14.5362 17.4397L14.2375 19.1835L15.2231 19.3524ZM15.5219 17.6086L15.0235 18.4756L15.2323 18.5956L15.7306 17.7286L16.229 16.8616L16.0202 16.7416L15.5219 17.6086ZM15.7306 17.7286L15.2716 18.617C16.2353 19.115 17.3405 19.2681 18.4034 19.0508L18.2031 18.0711L18.0028 17.0914C17.3875 17.2171 16.7477 17.1285 16.1897 16.8402L15.7306 17.7286ZM18.2031 18.0711L18.2884 19.0675C18.6558 19.036 19.0043 18.8909 19.2854 18.6523L18.6384 17.8899L17.9914 17.1274C18.0271 17.0971 18.0712 17.0787 18.1178 17.0747L18.2031 18.0711ZM18.6384 17.8899L19.2854 18.6523C19.5666 18.4138 19.7665 18.0936 19.8573 17.7362L18.8881 17.4899L17.9189 17.2435C17.9305 17.1982 17.9558 17.1576 17.9914 17.1274L18.6384 17.8899ZM18.8881 17.4899L19.8829 17.5921C19.921 17.2217 19.8381 16.8488 19.6468 16.5293L18.7889 17.0431L17.931 17.557C17.9005 17.5061 17.8873 17.4466 17.8934 17.3876L18.8881 17.4899ZM18.7889 17.0431L19.6468 16.5293C19.4554 16.2098 19.1657 15.9608 18.8211 15.8196L18.4419 16.7449L18.0626 17.6702C18.0077 17.6476 17.9615 17.6079 17.931 17.557L18.7889 17.0431ZM18.4419 16.7449L18.986 15.9058C18.8016 15.7862 18.6117 15.6826 18.4669 15.6022C18.3096 15.515 18.1955 15.45 18.097 15.3828L17.5331 16.2086L16.9692 17.0344C17.1545 17.161 17.3454 17.2672 17.4968 17.3512C17.6608 17.4422 17.7834 17.5097 17.8978 17.5839L18.4419 16.7449ZM17.5331 16.2086L18.0198 15.335C17.7258 15.1712 17.4537 14.971 17.2098 14.739L16.5206 15.4636L15.8314 16.1882C16.1972 16.5361 16.6054 16.8365 17.0464 17.0822L17.5331 16.2086ZM16.5206 15.4636L17.2879 14.8223C17.1291 14.6323 17.0421 14.3925 17.0421 14.1449H16.0421H15.0421C15.0421 14.8614 15.2938 15.5552 15.7534 16.1049L16.5206 15.4636ZM16.0421 14.1449H17.0421C17.0421 13.8972 17.1291 13.6574 17.2879 13.4674L16.5206 12.8261L15.7534 12.1848C15.2938 12.7345 15.0421 13.4283 15.0421 14.1449H16.0421ZM16.5206 12.8261L17.2581 13.5014C17.5703 13.1605 17.9785 12.9221 18.4289 12.8178L18.2031 11.8436L17.9774 10.8694C17.1333 11.065 16.3683 11.5117 15.7831 12.1508L16.5206 12.8261ZM18.2031 11.8436L18.4462 12.8136C19.2399 12.6148 20.0748 12.6564 20.8447 12.9333L21.1831 11.9924L21.5216 11.0514C20.3783 10.6402 19.1386 10.5783 17.9601 10.8736L18.2031 11.8436ZM21.1831 11.9924V12.9924H21.2581V11.9924V10.9924H21.1831V11.9924ZM21.2581 11.9924L20.2733 11.8187L19.9896 13.4274L20.9744 13.6011L21.9592 13.7748L22.2429 12.1661L21.2581 11.9924ZM20.9744 13.6011L21.2665 12.6447C20.8474 12.5167 20.4202 12.4172 19.9878 12.3466L19.8269 13.3336L19.6659 14.3206C20.0097 14.3766 20.3492 14.4558 20.6823 14.5575L20.9744 13.6011ZM19.8269 13.3336L19.9044 12.3366C19.4659 12.3025 19.0254 12.3025 18.5869 12.3366L18.6644 13.3336L18.7419 14.3306C19.0772 14.3045 19.414 14.3045 19.7494 14.3306L19.8269 13.3336ZM18.6644 13.3336L18.4676 12.3532C18.1418 12.4185 17.8413 12.5754 17.6014 12.8052L18.2931 13.5274L18.9849 14.2495C18.9506 14.2823 18.9077 14.3047 18.8611 14.3141L18.6644 13.3336ZM18.2931 13.5274L17.6445 12.7662C17.4848 12.9024 17.3565 13.0715 17.2685 13.2621L18.1764 13.6812L19.0844 14.1004C19.051 14.1727 19.0023 14.2368 18.9417 14.2885L18.2931 13.5274ZM18.1764 13.6812L17.2685 13.2621C17.1806 13.4526 17.135 13.66 17.135 13.8699H18.135H19.135C19.135 13.9495 19.1177 14.0281 19.0844 14.1004L18.1764 13.6812ZM18.135 13.8699H17.135C17.135 14.0797 17.1806 14.2871 17.2685 14.4776L18.1764 14.0585L19.0844 13.6393C19.1177 13.7116 19.135 13.7902 19.135 13.8699H18.135ZM18.1764 14.0585L17.2685 14.4776C17.3565 14.6682 17.4848 14.8373 17.6445 14.9735L18.2931 14.2124L18.9417 13.4512C19.0023 13.5029 19.051 13.567 19.0844 13.6393L18.1764 14.0585ZM18.2931 14.2124L17.6158 14.9481C17.8449 15.159 18.0937 15.3444 18.3612 15.5039L18.8731 14.6449L19.3851 13.7858C19.2359 13.6969 19.098 13.5941 18.9704 13.4766L18.2931 14.2124ZM18.8731 14.6449L18.3506 15.4975C18.5656 15.6293 18.7889 15.7513 18.9704 15.8532C19.1622 15.9609 19.3242 16.0552 19.4726 16.1563L20.0356 15.3299L20.5986 14.5034C20.3745 14.3507 20.1491 14.2213 19.9496 14.1093C19.7399 13.9915 19.5681 13.8979 19.3957 13.7923L18.8731 14.6449ZM20.0356 15.3299L19.514 16.183C19.6784 16.2836 19.8148 16.424 19.9104 16.5912L20.7786 16.095L21.6467 15.5987C21.3839 15.1389 21.0091 14.7529 20.5572 14.4767L20.0356 15.3299ZM20.7786 16.095L19.9104 16.5912C20.006 16.7585 20.0579 16.9473 20.061 17.1399L21.0609 17.1234L22.0608 17.1068C22.052 16.5772 21.9096 16.0585 21.6467 15.5987L20.7786 16.095ZM21.0609 17.1234L20.061 17.1399C20.0642 17.3326 20.0187 17.5229 19.9287 17.6933L20.8128 18.1606L21.6969 18.6278C21.9444 18.1595 22.0695 17.6363 22.0608 17.1068L21.0609 17.1234ZM20.8128 18.1606L19.9287 17.6933C19.8386 17.8637 19.707 18.0085 19.546 18.1144L20.0956 18.9499L20.6452 19.7853C21.0877 19.4942 21.4494 19.0961 21.6969 18.6278L20.8128 18.1606ZM20.0956 18.9499L19.4831 18.1594C19.041 18.502 18.5096 18.71 17.9524 18.7586L18.0394 19.7549L18.1263 20.7511C19.0661 20.669 19.9624 20.3181 20.7081 19.7403L20.0956 18.9499ZM18.0394 19.7549L17.9316 18.7607C17.1405 18.8465 16.3405 18.7321 15.6051 18.4282L15.2231 19.3524L14.8411 20.2765C15.8862 20.7085 17.023 20.8709 18.1472 20.749L18.0394 19.7549ZM11.9156 19.6499L12.9025 19.8115L14.1837 11.9903L13.1969 11.8286L12.21 11.6669L10.9288 19.4882L11.9156 19.6499ZM13.1969 11.8286V12.8286H15.2381V11.8286V10.8286H13.1969V11.8286ZM15.2381 11.8286L14.2513 11.6669L12.97 19.4882L13.9569 19.6499L14.9437 19.8115L16.225 11.9903L15.2381 11.8286ZM13.9569 19.6499V18.6499H11.9156V19.6499V20.6499H13.9569V19.6499Z" fill="#2563EB" mask="url(#path-1-inside-1_1574_656)"/>
</svg>
