<svg width="31" height="31" viewBox="0 0 31 31" fill="none" xmlns="http://www.w3.org/2000/svg">
<path d="M15.6406 4.98975C17.1276 4.98975 18.5204 5.27304 19.8242 5.83643C21.1369 6.40485 22.2742 7.17241 23.2402 8.13916L23.2412 8.14014C24.0871 8.98536 24.78 9.96161 25.3203 11.0718L25.543 11.5562C26.1072 12.86 26.3906 14.2528 26.3906 15.7397C26.3906 17.2267 26.1073 18.6195 25.5439 19.9233C24.9754 21.2363 24.2083 22.3742 23.2422 23.3403C22.3961 24.1864 21.419 24.879 20.3086 25.4194L19.8242 25.6421C18.5213 26.2063 17.1285 26.4897 15.6406 26.4897C14.1527 26.4897 12.76 26.2064 11.457 25.6431C10.1441 25.0745 9.00617 24.3074 8.04004 23.3413C7.19402 22.4953 6.50132 21.5181 5.96094 20.4077L5.73828 19.9233C5.17412 18.6204 4.89062 17.2276 4.89062 15.7397C4.89062 14.2519 5.17395 12.8591 5.7373 11.5562C6.30487 10.2435 7.07249 9.10615 8.04004 8.14014C9.00768 7.17408 10.1443 6.40475 11.4551 5.83545L11.4561 5.83643C12.76 5.27293 14.1535 4.98975 15.6406 4.98975ZM15.6406 5.23975C12.7192 5.23975 10.2266 6.25925 8.19336 8.29248C6.16013 10.3257 5.14062 12.8183 5.14062 15.7397C5.14062 18.6612 6.16013 21.1538 8.19336 23.187C10.2266 25.2202 12.7192 26.2397 15.6406 26.2397C18.5621 26.2397 21.0547 25.2202 23.0879 23.187C25.1211 21.1538 26.1406 18.6612 26.1406 15.7397C26.1406 12.8183 25.1211 10.3257 23.0879 8.29248C21.0547 6.25925 18.5621 5.23975 15.6406 5.23975ZM10.6348 13.9321C10.6357 13.9327 10.6364 13.9329 10.6367 13.9331C10.6373 13.9335 10.6378 13.9342 10.6387 13.9351C10.6401 13.9365 10.6474 13.9451 10.6572 13.9683C10.6702 13.9989 10.6728 14.0227 10.6592 14.063C10.557 14.3391 10.4839 14.6161 10.4424 14.894C10.4007 15.1671 10.3809 15.4522 10.3809 15.7476C10.3809 16.3581 10.4841 16.9475 10.6904 17.5132L10.7852 17.7544C11.0196 18.3117 11.3421 18.8147 11.75 19.2622L11.9297 19.4507C12.5563 20.0782 13.3083 20.4947 14.1758 20.6948C14.991 20.8829 15.8243 20.9735 16.6748 20.9683L17.8242 20.9614C17.8236 21.0879 17.7829 21.1981 17.6699 21.312L15.7686 23.2134C15.7512 23.2305 15.7358 23.2392 15.7266 23.2456C15.7177 23.2393 15.7034 23.2311 15.6875 23.2153C15.6734 23.2013 15.6671 23.1901 15.6631 23.1841C15.6651 23.1711 15.67 23.1587 15.6895 23.1392L16.8936 21.9341L17.7402 21.0864L16.542 21.0806C15.6597 21.0766 14.79 20.9636 13.9336 20.7407C13.1256 20.5312 12.4367 20.13 11.8574 19.5327L11.8516 19.5278L11.668 19.3345C11.3108 18.9419 11.0189 18.5089 10.792 18.0337L10.6846 17.7925C10.4123 17.1422 10.2754 16.4595 10.2754 15.7397C10.2754 15.4366 10.3033 15.1409 10.3574 14.8521C10.3992 14.6284 10.4526 14.4066 10.5176 14.187L10.5859 13.9683C10.5894 13.958 10.593 13.9518 10.5947 13.9487C10.5954 13.9475 10.5954 13.9463 10.5957 13.9458H10.5967L10.5977 13.9448C10.5987 13.9441 10.6019 13.9419 10.6084 13.939C10.6179 13.9347 10.6245 13.932 10.6279 13.9312H10.6309L10.6348 13.9321ZM15.7207 18.6753C15.7322 18.6766 15.7442 18.6803 15.7656 18.7017L17.6699 20.606C17.769 20.7051 17.8104 20.802 17.8203 20.9097L15.6895 18.7788C15.6732 18.7621 15.6653 18.7477 15.6592 18.7388C15.6655 18.7299 15.6747 18.7165 15.6904 18.7007C15.7043 18.6867 15.7147 18.6793 15.7207 18.6753ZM15.6172 8.26318C15.6308 8.27677 15.6375 8.28741 15.6416 8.29346C15.6393 8.31464 15.6341 8.32906 15.6152 8.34912L13.5586 10.4058H14.7656C15.6485 10.4058 16.517 10.5154 17.3721 10.7349L17.373 10.7358C18.1805 10.9422 18.8726 11.3413 19.457 11.9399L19.4609 11.9448C19.971 12.4549 20.3585 13.0339 20.627 13.6841C20.8957 14.3349 21.0303 15.019 21.0303 15.7397C21.0303 15.9671 21.0151 16.1939 20.9844 16.4204L20.9482 16.647C20.8916 16.9547 20.8152 17.2531 20.7188 17.5425V17.5444C20.7178 17.5473 20.7156 17.5493 20.7148 17.5513C20.6992 17.5568 20.691 17.5581 20.6885 17.5581C20.6859 17.5581 20.6804 17.5566 20.6689 17.5522C20.6667 17.5497 20.6587 17.5404 20.6494 17.5181C20.6419 17.5 20.6383 17.4838 20.6377 17.4673L20.6465 17.4126C20.7491 17.1369 20.8229 16.8606 20.8643 16.5835C20.8947 16.3793 20.9134 16.1686 20.9209 15.9517L20.9248 15.7319C20.9256 15.0343 20.791 14.3638 20.5215 13.7251C20.2863 13.1679 19.9639 12.6645 19.5566 12.2163L19.377 12.0278L19.1357 11.8022C18.5589 11.2992 17.8864 10.959 17.125 10.7847C16.3094 10.5978 15.4763 10.5044 14.627 10.5044H13.4814C13.4843 10.4159 13.5068 10.3349 13.5635 10.2544L13.6367 10.1685L15.54 8.26221C15.5568 8.24572 15.5708 8.23745 15.5791 8.23193C15.5875 8.23771 15.6007 8.24674 15.6172 8.26318ZM14.2734 11.3579L15.6172 12.7036L15.6191 12.7056C15.6338 12.72 15.6417 12.7328 15.6475 12.7407C15.6417 12.749 15.6341 12.7629 15.6182 12.7788C15.6057 12.7912 15.5961 12.7988 15.5898 12.8032C15.5882 12.8044 15.5862 12.8044 15.585 12.8052C15.5729 12.8038 15.5621 12.8 15.542 12.7798L15.54 12.7788L13.6367 10.8745H13.6357C13.5343 10.7735 13.4914 10.6752 13.4824 10.5659L14.2734 11.3579Z" fill="#2563EB" stroke="#2563EB"/>
</svg>
