<svg width="25" height="25" viewBox="0 0 25 25" fill="none" xmlns="http://www.w3.org/2000/svg">
<path d="M12.5133 11.2534L6.10926 8.53538C5.83726 8.42938 5.67792 8.23605 5.63126 7.95538C5.58459 7.67472 5.66159 7.43438 5.86226 7.23438L6.10826 6.96838C6.20359 6.87372 6.31192 6.80905 6.43326 6.77438C6.55459 6.73972 6.68292 6.73272 6.81826 6.75338L15.5303 8.25738L18.6683 5.11238C18.9489 4.83238 19.2883 4.69238 19.6863 4.69238C20.0843 4.69238 20.4239 4.83238 20.7053 5.11238C20.9859 5.39305 21.1263 5.73272 21.1263 6.13138C21.1263 6.53005 20.9859 6.86938 20.7053 7.14938L17.5663 10.2934L19.0653 18.9994C19.0853 19.1354 19.0789 19.265 19.0463 19.3884C19.0136 19.511 18.9499 19.62 18.8553 19.7154L18.5903 19.9554C18.3889 20.1567 18.1473 20.235 17.8653 20.1904C17.5826 20.145 17.3883 19.9867 17.2823 19.7154L14.5683 13.2914L11.4993 16.3554L12.0293 19.4744C12.0506 19.577 12.0489 19.6754 12.0243 19.7694C12.0003 19.864 11.9489 19.9504 11.8703 20.0284L11.5993 20.2804C11.4426 20.437 11.2639 20.4967 11.0633 20.4594C10.8633 20.422 10.7116 20.311 10.6083 20.1264L8.89926 16.9234L5.69726 15.2134C5.51259 15.1114 5.40159 14.96 5.36426 14.7594C5.32692 14.5587 5.38692 14.38 5.54426 14.2234L5.79526 13.9524C5.87326 13.8737 5.95959 13.819 6.05426 13.7884C6.14826 13.7577 6.24659 13.7527 6.34926 13.7734L9.46226 14.3174L12.5133 11.2534Z" fill="#2563EB"/>
</svg>
