<svg width="25" height="25" viewBox="0 0 25 25" fill="none" xmlns="http://www.w3.org/2000/svg">
<path d="M18.332 15.8735H6.33203L2.33203 19.8735V3.87354C2.33203 3.60832 2.43739 3.35396 2.62492 3.16643C2.81246 2.97889 3.06681 2.87354 3.33203 2.87354H18.332C18.5972 2.87354 18.8516 2.97889 19.0391 3.16643C19.2267 3.35396 19.332 3.60832 19.332 3.87354V14.8735C19.332 15.1388 19.2267 15.3931 19.0391 15.5806C18.8516 15.7682 18.5972 15.8735 18.332 15.8735ZM23.332 9.87354V23.8735L19.332 19.8735H8.33203C8.06681 19.8735 7.81246 19.7682 7.62492 19.5806C7.43739 19.3931 7.33203 19.1388 7.33203 18.8735V17.8735H21.332V8.87354H22.332C22.5972 8.87354 22.8516 8.97889 23.0391 9.16643C23.2267 9.35396 23.332 9.60832 23.332 9.87354ZM8.52203 4.87354C7.65203 4.87354 6.95203 5.07354 6.41203 5.46354C5.89203 5.87354 5.63203 6.44354 5.64203 7.23354L5.65203 7.26354H7.58203C7.59203 6.96353 7.68203 6.73354 7.86203 6.57353C8.04721 6.41998 8.28153 6.33832 8.52203 6.34353C8.83203 6.34353 9.09203 6.44354 9.27203 6.62354C9.45203 6.81354 9.53203 7.07353 9.53203 7.37354C9.53203 7.69354 9.46203 7.96354 9.30203 8.19354C9.16203 8.42354 8.95203 8.62354 8.69203 8.78354C8.18203 9.12354 7.83203 9.42353 7.64203 9.69353C7.44203 9.95354 7.33203 10.3735 7.33203 10.8735H9.33203C9.33203 10.5635 9.37203 10.3135 9.46203 10.1335C9.55203 9.95354 9.72203 9.77353 9.97203 9.61353C10.422 9.37354 10.792 9.08354 11.082 8.68354C11.372 8.28354 11.522 7.87354 11.522 7.37354C11.522 6.61354 11.252 6.00354 10.712 5.55353C10.182 5.10353 9.45203 4.87354 8.52203 4.87354ZM7.33203 11.8735V13.8735H9.33203V11.8735H7.33203ZM13.332 13.8735H15.332V11.8735H13.332V13.8735ZM13.332 4.87354V10.8735H15.332V4.87354H13.332Z" fill="#2563EB"/>
</svg>
