<svg width="31" height="31" viewBox="0 0 31 31" fill="none" xmlns="http://www.w3.org/2000/svg">
<path d="M15.6406 14.6768C16.2539 14.6768 16.8427 14.9208 17.2764 15.3545C17.7099 15.7881 17.953 16.3761 17.9531 16.9893C17.9531 17.6026 17.71 18.1913 17.2764 18.625C16.8427 19.0587 16.2539 19.3018 15.6406 19.3018C15.0275 19.3016 14.4394 19.0586 14.0059 18.625C13.5722 18.1913 13.3281 17.6026 13.3281 16.9893C13.3282 16.3761 13.5723 15.7881 14.0059 15.3545C14.4394 14.9209 15.0275 14.6769 15.6406 14.6768ZM20.3584 4.14258C20.642 4.10208 20.9312 4.12224 21.2061 4.20312C21.4809 4.28403 21.7347 4.42365 21.9512 4.61133C22.1677 4.79909 22.342 5.03129 22.4609 5.29199C22.5798 5.55255 22.6406 5.83568 22.6406 6.12207V6.54199C22.3922 6.50804 22.1418 6.48901 21.8906 6.48926H7.31738C7.27009 6.33067 7.20121 6.17845 7.11035 6.03809C7.10972 6.0371 7.10904 6.03614 7.1084 6.03516L20.3584 4.14258Z" fill="#2563EB" stroke="#2563EB"/>
<path fill-rule="evenodd" clip-rule="evenodd" d="M23.1406 8.45225C24.5969 8.9685 25.6406 10.3572 25.6406 11.9897V24.4897C25.6406 25.4843 25.2455 26.4381 24.5423 27.1414C23.839 27.8447 22.8852 28.2397 21.8906 28.2397H9.39062C8.39606 28.2397 7.44224 27.8447 6.73897 27.1414C6.03571 26.4381 5.64063 25.4843 5.64062 24.4897V6.98975C5.64062 7.32127 5.77232 7.63921 6.00674 7.87363C6.24116 8.10805 6.5591 8.23975 6.89062 8.23975H21.8906C22.3281 8.23975 22.7494 8.31475 23.1406 8.45225ZM15.6406 12.3022C14.3974 12.3022 13.2051 12.7961 12.3261 13.6752C11.447 14.5543 10.9531 15.7465 10.9531 16.9897C10.9531 18.2329 11.447 19.4252 12.3261 20.3043C13.2051 21.1834 14.3974 21.6772 15.6406 21.6772C16.8838 21.6772 18.0761 21.1834 18.9552 20.3043C19.8343 19.4252 20.3281 18.2329 20.3281 16.9897C20.3281 15.7465 19.8343 14.5543 18.9552 13.6752C18.0761 12.7961 16.8838 12.3022 15.6406 12.3022ZM13.1406 23.5522C12.892 23.5522 12.6535 23.651 12.4777 23.8268C12.3019 24.0026 12.2031 24.2411 12.2031 24.4897C12.2031 24.7384 12.3019 24.9768 12.4777 25.1527C12.6535 25.3285 12.892 25.4272 13.1406 25.4272H18.1406C18.3893 25.4272 18.6277 25.3285 18.8035 25.1527C18.9794 24.9768 19.0781 24.7384 19.0781 24.4897C19.0781 24.2411 18.9794 24.0026 18.8035 23.8268C18.6277 23.651 18.3893 23.5522 18.1406 23.5522H13.1406Z" fill="#2563EB"/>
</svg>
