<svg width="31" height="31" viewBox="0 0 31 31" fill="none" xmlns="http://www.w3.org/2000/svg">
<path d="M27.1406 25.2397V26.2397H17.1406V25.2397H27.1406ZM14.1406 25.2397V26.2397H7.14062V25.2397H14.1406ZM2.22852 24.2397C2.30241 24.4484 2.42054 24.6408 2.58008 24.8003C2.73961 24.9598 2.93193 25.078 3.14062 25.1519V26.188C2.664 26.0906 2.22218 25.8565 1.87305 25.5073C1.52392 25.1582 1.28973 24.7164 1.19238 24.2397H2.22852ZM30.0889 24.2397C29.9915 24.7164 29.7573 25.1582 29.4082 25.5073C29.0591 25.8565 28.6173 26.0906 28.1406 26.188V25.1519C28.3493 25.078 28.5416 24.9598 28.7012 24.8003C28.8607 24.6408 28.9788 24.4484 29.0527 24.2397H30.0889ZM11.1406 19.2632C12.4159 19.3796 13.6164 19.9382 14.5293 20.8511C15.4422 21.764 15.9998 22.9645 16.1162 24.2397H15.1113C14.9985 23.2303 14.5474 22.2833 13.8223 21.5581C13.0971 20.8329 12.1501 20.3809 11.1406 20.2681V19.2632ZM10.1406 20.2681C9.13113 20.3809 8.18419 20.8329 7.45898 21.5581C6.73381 22.2833 6.28279 23.2303 6.16992 24.2397H5.16504C5.28144 22.9645 5.83906 21.764 6.75195 20.8511C7.66487 19.9382 8.86532 19.3796 10.1406 19.2632V20.2681ZM30.1406 8.23975V23.2397H29.1406V8.23975H30.1406ZM2.14062 8.23975V23.2397H1.14062V8.23975H2.14062ZM24.1406 17.2397V18.2397H19.1406V17.2397H24.1406ZM8.19238 13.2397C8.28973 13.7164 8.52392 14.1582 8.87305 14.5073C9.22218 14.8565 9.664 15.0906 10.1406 15.188V16.2036C9.39724 16.0963 8.70337 15.7517 8.16602 15.2144C7.62866 14.677 7.28405 13.9831 7.17676 13.2397H8.19238ZM14.1045 13.2397C13.9972 13.9831 13.6526 14.677 13.1152 15.2144C12.5779 15.7517 11.884 16.0963 11.1406 16.2036V15.188C11.6173 15.0906 12.0591 14.8565 12.4082 14.5073C12.7573 14.1582 12.9915 13.7164 13.0889 13.2397H14.1045ZM24.1406 11.2397V12.2397H19.1406V11.2397H24.1406ZM11.1406 9.2749C11.8841 9.38218 12.5778 9.72774 13.1152 10.2651C13.6526 10.8025 13.9972 11.4964 14.1045 12.2397H13.0889C12.9915 11.7631 12.7573 11.3213 12.4082 10.9722C12.059 10.623 11.6173 10.3879 11.1406 10.2905V9.2749ZM10.1406 10.2905C9.66392 10.3879 9.22222 10.623 8.87305 10.9722C8.52392 11.3213 8.28973 11.7631 8.19238 12.2397H7.17676C7.28405 11.4964 7.62866 10.8025 8.16602 10.2651C8.70341 9.72774 9.39719 9.38218 10.1406 9.2749V10.2905ZM28.1406 5.29053C28.6173 5.38785 29.059 5.62299 29.4082 5.97217C29.7573 6.3213 29.9915 6.76312 30.0889 7.23975H29.0527C28.9788 7.03105 28.8607 6.83873 28.7012 6.6792C28.5416 6.51959 28.3494 6.40055 28.1406 6.32666V5.29053ZM3.14062 6.32666C2.93181 6.40055 2.73969 6.51959 2.58008 6.6792C2.42054 6.83873 2.30241 7.03105 2.22852 7.23975H1.19238C1.28973 6.76312 1.52392 6.3213 1.87305 5.97217C2.22222 5.62299 2.66392 5.38785 3.14062 5.29053V6.32666ZM27.1406 5.23975V6.23975H4.14062V5.23975H27.1406Z" fill="#2563EB" stroke="#2563EB"/>
</svg>
